<?xml version="1.0" encoding="utf-8"?>
<svg version="1.1" id="Layer_1" focusable="false" x="0px" y="0px" viewBox="0 0 512 512" style="enable-background:new 0 0 512 512;" xmlns="http://www.w3.org/2000/svg">
  <path d="M504,416H32V72c0-4.4-3.6-8-8-8H8c-4.4,0-8,3.6-8,8v360c0,8.8,7.2,16,16,16h488c4.4,0,8-3.6,8-8v-16 C512,419.6,508.4,416,504,416z M160,312c13.3,0,24-10.7,24-24s-10.7-24-24-24s-24,10.7-24,24S146.7,312,160,312z M416,152 c13.3,0,24-10.7,24-24s-10.7-24-24-24s-24,10.7-24,24S402.7,152,416,152z M192,152c13.3,0,24-10.7,24-24s-10.7-24-24-24 s-24,10.7-24,24S178.7,152,192,152z M384,312c13.3,0,24-10.7,24-24s-10.7-24-24-24s-24,10.7-24,24S370.7,312,384,312z M288,248 c13.3,0,24-10.7,24-24s-10.7-24-24-24s-24,10.7-24,24S274.7,248,288,248z"/>
  <circle cx="192" cy="128" r="33.5"/>
  <circle cx="384" cy="288" r="33.3"/>
  <circle cx="268.897" cy="235.805" r="72.445" style=""/>
  <circle cx="319.9" cy="116.1" r="40.1"/>
</svg>