<?xml version="1.0" encoding="utf-8"?>
<svg aria-hidden="true" focusable="false" data-prefix="fas" data-icon="chart-pie-alt" class="svg-inline--fa fa-chart-pie-alt fa-w-16" role="img" viewBox="0 0 512 512" xmlns="http://www.w3.org/2000/svg">
  <path fill="currentColor" d="M 443.359 285.123 L 226.486 285.123 L 226.486 68.25 C 226.486 59.522 218.818 52.356 210.181 53.572 C 101.347 68.945 18.141 163.96 21.879 277.875 C 25.598 391.233 120.385 486.011 233.734 489.73 C 347.649 493.469 442.664 410.262 458.037 301.428 C 459.253 292.791 452.078 285.123 443.359 285.123 Z M 285.711 21.94 C 277.375 21.364 270.356 28.392 270.356 36.746 L 270.356 241.253 L 474.872 241.253 C 483.226 241.253 490.245 234.225 489.678 225.898 C 482.138 116.717 394.892 29.471 285.711 21.94 Z" style=""/>
</svg>