<?xml version="1.0" encoding="utf-8"?>
<svg version="1.1" id="Layer_1" focusable="false" xmlns="http://www.w3.org/2000/svg" x="0px" y="0px" viewBox="0 0 512 512" style="enable-background:new 0 0 512 512;">
  <style type="text/css">
	.st0{opacity:0.33;}
</style>
  <path d="M504,416H32V72c0-4.4-3.6-8-8-8H8c-4.4,0-8,3.6-8,8v360c0,8.8,7.2,16,16,16h488c4.4,0,8-3.6,8-8v-16 C512,419.6,508.4,416,504,416z"/>
  <circle cx="147.864" cy="97.918" r="13"/>
  <rect x="65.023" y="244.851" width="165.108" height="91.69" style="stroke: rgb(0, 0, 0); stroke-linejoin: round; stroke-linecap: round; stroke-width: 15px; fill: rgb(171, 171, 171);"/>
  <path style="fill: none; stroke: rgb(0, 0, 0); stroke-width: 15px; stroke-linecap: round;" d="M 75.284 386.476 L 219.87 386.725"/>
  <path style="fill: none; stroke: rgb(0, 0, 0); stroke-width: 15; stroke-linecap: round;" d="M 75.284 164.202 L 219.87 164.451"/>
  <path style="fill: none; stroke: rgb(0, 0, 0); stroke-width: 15; stroke-linecap: round; transform-box: fill-box; transform-origin: 50% 50%;" d="M 147.489 343.676 L 147.665 385.624" transform="matrix(-1, 0, 0, -1, -0.000012, -0.000006)"/>
  <path style="fill: none; stroke: rgb(0, 0, 0); stroke-width: 15; stroke-linecap: round; transform-origin: 147.577px 206.486px;" d="M 147.4 172.625 L 147.754 240.346" transform="matrix(-1, 0, 0, -1, -0.000012, -0.000002)"/>
  <circle cx="391.988" cy="390.641" r="13" style="stroke-width: 1;"/>
  <rect x="308.924" y="188.617" width="166.129" height="65.797" style="stroke: rgb(0, 0, 0); stroke-linejoin: round; stroke-linecap: round; stroke-width: 15; fill: rgb(171, 171, 171);"/>
  <path style="fill: none; stroke: rgb(0, 0, 0); stroke-width: 15; stroke-linecap: round;" d="M 319.695 304.349 L 464.281 304.598"/>
  <path style="fill: none; stroke: rgb(0, 0, 0); stroke-width: 15; stroke-linecap: round;" d="M 319.695 82.075 L 464.281 82.324"/>
  <path style="fill: none; stroke: rgb(0, 0, 0); stroke-width: 15; stroke-linecap: round; transform-origin: 391.989px 282.523px;" d="M 391.901 261.549 L 392.077 303.497" transform="matrix(-1, 0, 0, -1, 0.000008, -0.000028)"/>
  <path style="fill: none; stroke: rgb(0, 0, 0); stroke-width: 15; stroke-linecap: round; transform-origin: 391.988px 137.134px;" d="M 391.814 183.771 L 392.163 90.499"/>
</svg>