<?xml version="1.0" encoding="utf-8"?>
<svg viewBox="37.615 33.383 436.456 436.55" width="436.456" height="436.55" xmlns="http://www.w3.org/2000/svg">
  <defs>
    <style type="text/css">
	.st0{fill:#494949;}
</style>
  </defs>
  <path d="M 459.24 265.124 L 383.89 265.124 C 373.521 363.692 260.337 414.071 180.16 355.807 C 99.982 297.543 112.944 174.333 203.491 134.029 C 215.815 128.544 228.925 125.029 242.34 123.614 L 242.34 48.214 C 242.34 39.514 234.64 32.314 226.04 33.514 C 117.14 48.914 33.94 144.014 37.74 257.914 C 41.44 371.314 136.24 466.014 249.64 469.814 C 363.54 473.514 458.54 390.314 473.94 281.514 C 475.14 272.794 467.94 265.124 459.24 265.124 Z"/>
  <path class="cls-1" d="M 474.03 237.324 C 466.53 128.124 379.33 40.924 270.13 33.424 C 261.83 32.824 254.73 39.924 254.73 48.224 L 254.73 123.974 C 325.853 123.952 383.52 181.602 383.52 252.724 L 459.27 252.724 C 467.63 252.724 474.63 245.724 474.03 237.324 Z" style="fill: rgb(73, 73, 73);"/>
</svg>