<?xml version="1.0" encoding="utf-8"?>
<!-- Generator: Adobe Illustrator 24.2.0, SVG Export Plug-In . SVG Version: 6.00 Build 0)  -->
<svg version="1.1" id="Layer_1" focusable="false" xmlns="http://www.w3.org/2000/svg" xmlns:xlink="http://www.w3.org/1999/xlink"
	 x="0px" y="0px" viewBox="0 0 512 512" style="enable-background:new 0 0 512 512;" xml:space="preserve">
<path d="M504,416H32V72c0-4.4-3.6-8-8-8H8c-4.4,0-8,3.6-8,8v360c0,8.8,7.2,16,16,16h488c4.4,0,8-3.6,8-8v-16
	C512,419.6,508.4,416,504,416z"/>
<path d="M430.9,186.1c5.7,3.5,12.5,5.4,19.8,4.6c15.3-1.6,27.5-14.4,28.2-29.8c0.9-18.1-13.6-33-31.5-33
	c-17.4,0-31.5,14.1-31.5,31.5c0,3.6,0.7,7,1.9,10.3l-111.5,89c-4.8-3-10.5-4.8-16.6-4.8c-6.1,0-11.7,1.8-16.6,4.8l-58.8-47
	c1.1-3.2,1.9-6.6,1.9-10.3c0-17.7-14.6-32-32.5-31.5c-15.3,0.5-28.1,12.2-30.2,27.4c-0.9,6.4,0.4,12.4,2.9,17.6l-63.1,63.1
	c-5.6-2.7-12.1-3.9-19.1-2.6c-14.2,2.7-25.1,14.8-25.9,29.3c-1,18.8,14.4,34.2,33.2,33.2c14.5-0.8,26.6-11.6,29.3-25.9
	c1.3-7,0.1-13.4-2.6-19.1l63.1-63.1c4.1,2,8.6,3.2,13.5,3.2c6.1,0,11.7-1.8,16.6-4.8l58.8,47c-1.1,3.2-1.9,6.7-1.9,10.3
	c0,17.4,14.1,31.5,31.5,31.5s31.5-14.1,31.5-31.5c0-3.6-0.7-7-1.9-10.3L430.9,186.1L430.9,186.1z M445.7,149.1
	c7.2-1.2,13.3,5,12.1,12.1c-0.7,4.3-4.2,7.9-8.6,8.6c-7.2,1.2-13.3-5-12.1-12.1C437.9,153.3,441.4,149.8,445.7,149.1z M81.5,316.8
	c-7.2,1.2-13.3-5-12.1-12.1c0.7-4.3,4.2-7.9,8.6-8.6c7.2-1.2,13.3,5,12.1,12.1C89.4,312.6,85.9,316.1,81.5,316.8z M186.5,211.8
	c-7.2,1.2-13.3-5-12.1-12.1c0.7-4.3,4.2-7.9,8.6-8.6c7.2-1.2,13.3,5,12.1,12.1C194.4,207.6,190.9,211.1,186.5,211.8z M291.5,295.8
	c-7.2,1.2-13.3-5-12.1-12.1c0.7-4.3,4.2-7.9,8.6-8.6c7.2-1.2,13.3,5,12.1,12.1C299.4,291.6,295.9,295.1,291.5,295.8z"/>
<circle cx="184.2" cy="199" r="13"/>
<circle cx="447.5" cy="159.4" r="13"/>
<circle cx="289.8" cy="285.4" r="13"/>
<circle cx="79.8" cy="306.4" r="13"/>
</svg>
