<svg xmlns="http://www.w3.org/2000/svg" viewBox="0 0 512 512" fill="currentColor">
<path d="M504 416H32V72c0-4.4-3.6-8-8-8H8c-4.4 0-8 3.6-8 8v360c0 8.8 7.2 16 16 16h488c4.4 0 8-3.6 8-8v-16c0-4.4-3.6-8-8-8z"></path>
  <g fill="none" stroke="currentColor" stroke-width="16" stroke-linecap="round" stroke-linejoin="round">
    <path d="M72 320 L168 220 L264 280 L360 160 L448 200"></path>
  </g>
  <circle cx="72" cy="320" r="14"></circle>
  <circle cx="168" cy="220" r="14"></circle>
  <circle cx="264" cy="280" r="14"></circle>
  <circle cx="360" cy="160" r="14"></circle>
  <circle cx="448" cy="200" r="14"></circle>
</svg>
