<?xml version="1.0" encoding="utf-8"?>
<!-- Generator: Adobe Illustrator 24.2.0, SVG Export Plug-In . SVG Version: 6.00 Build 0)  -->
<svg version="1.1" id="Layer_1" focusable="false" xmlns="http://www.w3.org/2000/svg" xmlns:xlink="http://www.w3.org/1999/xlink"
	 x="0px" y="0px" viewBox="0 0 512 512" style="enable-background:new 0 0 512 512;" xml:space="preserve">
<style type="text/css">
	.st0{fill:#494949;}
</style>
<path d="M443.4,285.1H226.5V68.2c0-8.7-7.7-15.9-16.3-14.7C101.3,68.9,18.1,164,21.9,277.9c3.7,113.4,98.5,208.1,211.9,211.9
	c113.9,3.7,208.9-79.5,224.3-188.3C459.3,292.8,452.1,285.1,443.4,285.1z M285.7,21.9c-8.3-0.6-15.4,6.5-15.4,14.8v204.5h204.5
	c8.4,0,15.4-7,14.8-15.4C482.1,116.7,394.9,29.5,285.7,21.9z"/>
<path class="st0" d="M234,489.9 M286,22.1c-8.3-0.6-15.4,6.5-15.4,14.8v204.5h204.5c8.4,0,15.4-7,14.8-15.4
	C482.4,116.8,395.2,29.6,286,22.1z"/>
</svg>
