<?xml version="1.0" encoding="utf-8"?>
<svg version="1.1" id="Layer_1" focusable="false" x="0px" y="0px" viewBox="0 0 512 512" style="enable-background:new 0 0 512 512;" xmlns="http://www.w3.org/2000/svg">
  <style type="text/css">
	.st0{fill:none;stroke:#ABABAB;stroke-width:20;stroke-miterlimit:10;}
	.st1{fill:#393939;}
	.st2{fill:#5D5D5D;}
	.st3{fill:none;}
</style>
  <line class="st0" x1="255.753" y1="11.383" x2="255.753" y2="500.745"/>
  <line class="st0" x1="500.434" y1="256.064" x2="11.072" y2="256.064"/>
  <circle class="st0" cx="255.753" cy="256.064" r="244.681"/>
  <circle class="st0" cx="255.753" cy="256.064" r="170.992"/>
  <circle class="st0" cx="255.753" cy="256.064" r="86.339"/>
  <path class="st1" d="M 254.488 500.745 L 254.488 255.115 L 499.064 255.115 L 498.958 255.537 C 498.958 390.686 389.426 500.218 254.277 500.218 L 254.488 500.745 Z" style="fill: rgb(82, 82, 82);"/>
  <path class="st2" d="M 73.903 255.853 L 255.015 255.853 L 255.015 74.74 L 254.805 74.951 C 154.655 74.951 73.481 156.125 73.481 256.275" style="fill: rgb(127, 127, 127);"/>
  <line class="st3" x1="1146.029" y1="195.974" x2="1316.811" y2="195.974"/>
  <path d="M 254.594 157.601 L 254.594 255.537 L 353.689 255.537 L 353.373 256.064 C 353.373 201.35 309.096 157.074 254.383 157.074"/>
</svg>