<?xml version="1.0" encoding="utf-8"?>
<!-- Generator: Adobe Illustrator 24.2.0, SVG Export Plug-In . SVG Version: 6.00 Build 0)  -->
<svg version="1.1" id="Layer_1" focusable="false" xmlns="http://www.w3.org/2000/svg" xmlns:xlink="http://www.w3.org/1999/xlink"
	 x="0px" y="0px" viewBox="0 0 512 512" style="enable-background:new 0 0 512 512;" xml:space="preserve">
<style type="text/css">
	.st0{fill:none;stroke:#000000;stroke-width:21;stroke-miterlimit:10;}
</style>
<path d="M504,416H32V72c0-4.4-3.6-8-8-8H8c-4.4,0-8,3.6-8,8v360c0,8.8,7.2,16,16,16h488c4.4,0,8-3.6,8-8v-16
	C512,419.6,508.4,416,504,416z"/>
<ellipse transform="matrix(3.327794e-02 -0.9994 0.9994 3.327794e-02 -231.0848 377.8929)" cx="79.8" cy="308.4" rx="32.7" ry="32.7"/>
<path class="st0" d="M79.8,308.4C79.8,243,132,199,184.3,199c79.3,0,44.7,148.1,112.1,148.1c108.2,0,151.1-106.1,151.1-187.6"/>
<circle cx="447.6" cy="159.4" r="32.7"/>
<circle cx="296.4" cy="347.1" r="32.7"/>
<circle cx="184" cy="201.2" r="32.7"/>
</svg>
