<?xml version="1.0" encoding="utf-8"?>
<!-- Generator: Adobe Illustrator 26.0.2, SVG Export Plug-In . SVG Version: 6.00 Build 0)  -->
<svg version="1.1" id="Layer_1" focusable="false" xmlns="http://www.w3.org/2000/svg" xmlns:xlink="http://www.w3.org/1999/xlink"
	 x="0px" y="0px" viewBox="0 0 512 512" style="enable-background:new 0 0 512 512;" xml:space="preserve">
<style type="text/css">
	.st0{fill:#999999;}
</style>
<path d="M424,352h16c4.4,0,8-3.6,8-8V104c0-4.4-3.6-8-8-8h-16c-4.4,0-8,3.6-8,8v240C416,348.4,419.6,352,424,352z M328,352h16
	c4.4,0,8-3.6,8-8V200c0-4.4-3.6-8-8-8h-16c-4.4,0-8,3.6-8,8v144C320,348.4,323.6,352,328,352z M136,352h16c4.4,0,8-3.6,8-8v-80
	c0-4.4-3.6-8-8-8h-16c-4.4,0-8,3.6-8,8v80C128,348.4,131.6,352,136,352z M232,352h16c4.4,0,8-3.6,8-8V136c0-4.4-3.6-8-8-8h-16
	c-4.4,0-8,3.6-8,8v208C224,348.4,227.6,352,232,352z M504,416H32V72c0-4.4-3.6-8-8-8H8c-4.4,0-8,3.6-8,8v360c0,8.8,7.2,16,16,16h488
	c4.4,0,8-3.6,8-8v-16C512,419.6,508.4,416,504,416z"/>
<path d="M424,352h16c4.4,0,8-3.6,8-8V104c0-4.4-3.6-8-8-8h-16c-4.4,0-8,3.6-8,8v240C416,348.4,419.6,352,424,352z M328,352h16
	c4.4,0,8-3.6,8-8V200c0-4.4-3.6-8-8-8h-16c-4.4,0-8,3.6-8,8v144C320,348.4,323.6,352,328,352z M136,352h16c4.4,0,8-3.6,8-8v-80
	c0-4.4-3.6-8-8-8h-16c-4.4,0-8,3.6-8,8v80C128,348.4,131.6,352,136,352z M232,352h16c4.4,0,8-3.6,8-8V136c0-4.4-3.6-8-8-8h-16
	c-4.4,0-8,3.6-8,8v208C224,348.4,227.6,352,232,352z M504,416H32V72c0-4.4-3.6-8-8-8H8c-4.4,0-8,3.6-8,8v360c0,8.8,7.2,16,16,16h488
	c4.4,0,8-3.6,8-8v-16C512,419.6,508.4,416,504,416z"/>
<path class="st0" d="M448,169.8V104c0-4.4-3.6-8-8-8h-16c-4.4,0-8,3.6-8,8v65.8 M352,243.5V200c0-4.4-3.6-8-8-8h-16
	c-4.4,0-8,3.6-8,8v43.5 M160,287v-23c0-4.4-3.6-8-8-8h-16c-4.4,0-8,3.6-8,8v23 M256,211.5V136c0-4.4-3.6-8-8-8h-16c-4.4,0-8,3.6-8,8
	v75.5"/>
</svg>
