<?xml version="1.0" encoding="utf-8"?>
<!-- Generator: Adobe Illustrator 26.0.2, SVG Export Plug-In . SVG Version: 6.00 Build 0)  -->
<svg version="1.1" id="Layer_1" focusable="false" xmlns="http://www.w3.org/2000/svg" xmlns:xlink="http://www.w3.org/1999/xlink"
	 x="0px" y="0px" viewBox="0 0 512 512" style="enable-background:new 0 0 512 512;" xml:space="preserve">
<style type="text/css">
	.st0{fill:#999999;}
</style>
<path d="M504,416H32V72c0-4.4-3.6-8-8-8H8c-4.4,0-8,3.6-8,8v360c0,8.8,7.2,16,16,16h488c4.4,0,8-3.6,8-8v-16
	C512,419.6,508.4,416,504,416z"/>
<path d="M89,341v16c0,4.4,3.6,8,8,8h240c4.4,0,8-3.6,8-8v-16c0-4.4-3.6-8-8-8H97C92.6,333,89,336.6,89,341z"/>
<path d="M89,266v16c0,4.4,3.6,8,8,8h144c4.4,0,8-3.6,8-8v-16c0-4.4-3.6-8-8-8H97C92.6,258,89,261.6,89,266z"/>
<path d="M89,116v16c0,4.4,3.6,8,8,8h80c4.4,0,8-3.6,8-8v-16c0-4.4-3.6-8-8-8H97C92.6,108,89,111.6,89,116z"/>
<path d="M89,191v16c0,4.4,3.6,8,8,8h208c4.4,0,8-3.6,8-8v-16c0-4.4-3.6-8-8-8H97C92.6,183,89,186.6,89,191z"/>
<path class="st0" d="M232,365h106c4.4,0,8-3.6,8-8v-16c0-4.4-3.6-8-8-8H232"/>
<path class="st0" d="M164,290h78c4.4,0,8-3.6,8-8v-16c0-4.4-3.6-8-8-8h-78"/>
<path class="st0" d="M132,140h46c4.4,0,8-3.6,8-8v-16c0-4.4-3.6-8-8-8h-46"/>
<path class="st0" d="M260,215h46c4.4,0,8-3.6,8-8v-16c0-4.4-3.6-8-8-8h-46"/>
</svg>
